<?xml version="1.0" encoding="utf-8"?>
<!-- Generator: Adobe Illustrator 26.0.0, SVG Export Plug-In . SVG Version: 6.00 Build 0)  -->
<svg version="1.1" id="Capa_1" xmlns="http://www.w3.org/2000/svg" xmlns:xlink="http://www.w3.org/1999/xlink" x="0px" y="0px"
	 viewBox="0 0 70.22 70.22" style="enable-background:new 0 0 70.22 70.22;" xml:space="preserve">
<style type="text/css">
	.st0{fill:#47BAB8;}
	.st1{fill:#F2B235;}
</style>
<path class="st0" d="M50.89,35.11l17.48-17.48c2.47-2.47,2.47-6.47,0-8.94l-6.84-6.84c-2.47-2.47-6.47-2.47-8.94,0L35.11,19.33
	L17.63,1.85c-2.47-2.47-6.47-2.47-8.94,0L1.85,8.69c-2.47,2.47-2.47,6.47,0,8.94l17.48,17.48L1.85,52.59
	c-2.47,2.47-2.47,6.47,0,8.94l6.84,6.84c2.47,2.47,6.47,2.47,8.94,0l17.48-17.48l17.48,17.48c2.47,2.47,6.47,2.47,8.94,0l6.84-6.84
	c2.47-2.47,2.47-6.47,0-8.94L50.89,35.11z"/>
</svg>
