<?xml version="1.0" encoding="utf-8"?>
<!-- Generator: Adobe Illustrator 26.0.0, SVG Export Plug-In . SVG Version: 6.00 Build 0)  -->
<svg version="1.1" id="Capa_1" xmlns="http://www.w3.org/2000/svg" xmlns:xlink="http://www.w3.org/1999/xlink" x="0px" y="0px"
	 viewBox="0 0 18.76 19.01" style="enable-background:new 0 0 18.76 19.01;" xml:space="preserve">
<style type="text/css">
	.st0{fill:#192A32;}
</style>
<g>
	<path class="st0" d="M10.7,8.3h7.06V1h-1v5.1C15.4,3.28,12.54,1.42,9.3,1.42C4.72,1.42,1,5.14,1,9.71c0,4.57,3.72,8.3,8.3,8.3
		c1.91,0,3.77-0.67,5.25-1.87l-0.63-0.77c-1.3,1.06-2.94,1.65-4.62,1.65c-4.02,0-7.3-3.27-7.3-7.3c0-4.02,3.27-7.3,7.3-7.3
		c3.13,0,5.84,1.98,6.86,4.89H10.7V8.3z"/>
	<path class="st0" d="M10.27,18.46C4.52,19.08-0.28,14.12,0.6,8.34c0.58-3.82,3.73-6.88,7.56-7.35c3-0.37,5.83,0.75,7.7,2.87
		c0.14,0.16,0.4,0.07,0.4-0.14V0.72c0-0.12,0.1-0.22,0.22-0.22h1.55c0.12,0,0.22,0.1,0.22,0.22v7.85c0,0.12-0.1,0.22-0.22,0.22
		h-7.61c-0.12,0-0.22-0.1-0.22-0.22V7.03c0-0.12,0.1-0.22,0.22-0.22h4.61c0.17,0,0.29-0.19,0.2-0.33c-1.48-2.72-4.71-4.22-7.93-3.26
		C4.77,3.97,2.87,6.24,2.55,8.87c-0.55,4.5,3.34,8.28,7.86,7.55c1.23-0.2,2.36-0.77,3.32-1.56l0.07-0.06
		c0.1-0.08,0.24-0.06,0.32,0.03l0.98,1.2c0.08,0.1,0.06,0.24-0.03,0.32l0,0C13.7,17.48,12.04,18.27,10.27,18.46z M9.3,1.92
		C9.31,1.92,9.31,1.92,9.3,1.92C9.31,1.92,9.31,1.92,9.3,1.92z"/>
</g>
</svg>
